{"title":"The Night Manager E04 HDTV 1080p 2ch+AD x265 10bit [S-Less]","uid":13859861,"size":361867489,"categoryP":"video","categoryS":"hd___tv_shows","magnet":"?xt=urn:btih:e747e8c087d9120a73616c9317aec2cdb4839ce4&amp;dn=The+Night+Manager+E04+HDTV+1080p+2ch%2BAD+x265+10bit+%5BS-Less%5D&amp;tr=udp%3A%2F%2Ftracker.leechers-paradise.org%3A6969&amp;tr=udp%3A%2F%2Fzer0day.ch%3A1337&amp;tr=udp%3A%2F%2Fopen.demonii.com%3A1337&amp;tr=udp%3A%2F%2Ftracker.coppersurfer.tk%3A6969&amp;tr=udp%3A%2F%2Fexodus.desync.com%3A6969","seeders":0,"leechers":1,"uploader":"soulessness","files":1,"time":1458024648,"description":"The.Night.Manager.E04.HDTV.1080p.2ch.x265.[S-Less]\r\n\r\nVideo: 1920 x 1080 HDTV x265 10bit\r\nAudio: 2.0 English &amp; 2.0 English Audio Described\r\nSubtitles: English\r\n\r\nEpisode 4\r\nRoper welcomes Pine into his inner circle, leaving Corky out in the cold. Meanwhile, Burr has concerns for the safety of her source when she suspects key information has been leaked to the River House.\r\n\r\nMediaInfo:\r\n\r\nVideo\r\nID : 1\r\nFormat : HEVC\r\nFormat/Info : High Efficiency Video Coding\r\nFormat profile : Main   @Main\r\nCodec ID : V_MPEGH/ISO/HEVC\r\nDuration : 58mn 3s\r\nBit rate : 636 Kbps\r\nWidth : 1 920 pixels\r\nHeight : 1 080 pixels\r\nDisplay aspect ratio : 16:9\r\nFrame rate mode : Constant\r\nFrame rate : 25.000 fps\r\nColor space : YUV\r\nChroma subsampling : 4:2:0\r\nBit depth : 10 bits\r\nBits/(Pixel*Frame) : 0.012\r\nStream size : 264 MiB (77%)\r\nWriting library : x265 1.8+2-55a4a9b920ff:[Windows][GCC 5.2.0][64 bit] 10bit\r\nDefault : Yes\r\nForced : No\r\n\r\nAudio #1\r\nID : 2\r\nFormat : AAC\r\nFormat/Info : Advanced Audio Codec\r\nFormat profile : LC\r\nCodec ID : A_AAC\r\nDuration : 58mn 3s\r\nBit rate : 96.0 Kbps\r\nChannel(s) : 2 channels\r\nChannel positions : Front: L R\r\nSampling rate : 48.0 KHz\r\nFrame rate : 46.875 fps (1024 spf)\r\nCompression mode : Lossy\r\nDelay relative to video : 9ms\r\nStream size : 39.9 MiB (12%)\r\nLanguage : English\r\nDefault : Yes\r\nForced : No\r\n\r\nAudio #2\r\nID : 3\r\nFormat : AAC\r\nFormat/Info : Advanced Audio Codec\r\nFormat profile : LC\r\nCodec ID : A_AAC\r\nDuration : 58mn 3s\r\nBit rate : 96.0 Kbps\r\nChannel(s) : 2 channels\r\nChannel positions : Front: L R\r\nSampling rate : 48.0 KHz\r\nFrame rate : 46.875 fps (1024 spf)\r\nCompression mode : Lossy\r\nDelay relative to video : 9ms\r\nStream size : 39.9 MiB (12%)\r\nLanguage : English Audio Described\r\nDefault : No\r\nForced : No\r\n\r\nText\r\nID : 4\r\nFormat : UTF-8\r\nCodec ID : S_TEXT/UTF8\r\nCodec ID/Info : UTF-8 Plain Text\r\nDuration : 56mn 37s\r\nBit rate : 65 bps\r\nCount of elements : 905\r\nStream size : 27.2 KiB (0%)\r\nLanguage : English\r\nDefault : Yes\r\nForced : No","torrent":{"xt":"urn:btih:e747e8c087d9120a73616c9317aec2cdb4839ce4","amp;dn":"The+Night+Manager+E04+HDTV+1080p+2ch%2BAD+x265+10bit+%5BS-Less%5D","amp;tr":["udp%3A%2F%2Ftracker.leechers-paradise.org%3A6969","udp%3A%2F%2Fzer0day.ch%3A1337","udp%3A%2F%2Fopen.demonii.com%3A1337","udp%3A%2F%2Ftracker.coppersurfer.tk%3A6969","udp%3A%2F%2Fexodus.desync.com%3A6969"],"infoHash":"e747e8c087d9120a73616c9317aec2cdb4839ce4","infoHashBuffer":{"type":"Buffer","data":[231,71,232,192,135,217,18,10,115,97,108,147,23,174,194,205,180,131,156,228]},"announce":[],"urlList":[]}}